HIERARCHY
ROOT Hips
{
	OFFSET 0.000000 0.000000 0.000000
	CHANNELS 6 Xposition Yposition Zposition Xrotation Yrotation Zrotation
	JOINT LeftUpLeg_virtual
	{
		OFFSET 0.000000 0.000000 0.000000
		CHANNELS 3 Xrotation Yrotation Zrotation
		JOINT LeftUpLeg
		{
			OFFSET 13.026900 -6.336304 -1.092800
			CHANNELS 3 Xrotation Yrotation Zrotation
			JOINT LeftLeg
			{
				OFFSET 0.524474 -46.096886 9.782700
				CHANNELS 3 Xrotation Yrotation Zrotation
				JOINT LeftFoot
				{
					OFFSET -0.524474 -53.427422 -12.948200
					CHANNELS 3 Xrotation Yrotation Zrotation
					JOINT LeftToeBase
					{
						OFFSET 0.192200 -14.009700 16.364100
						CHANNELS 3 Xrotation Yrotation Zrotation
						JOINT LeftToe_End
						{
							OFFSET -1.784700 -0.561700 9.474800
							CHANNELS 3 Xrotation Yrotation Zrotation
							End Site
							{
								OFFSET 0 0 0
							}
						}
					}
				}
			}
		}
	}
	JOINT RightUpLeg_virtual
	{
		OFFSET 0.000000 0.000000 0.000000
		CHANNELS 3 Xrotation Yrotation Zrotation
		JOINT RightUpLeg
		{
			OFFSET -12.883000 -6.336304 -1.092800
			CHANNELS 3 Xrotation Yrotation Zrotation
			JOINT RightLeg
			{
				OFFSET -0.524587 -46.096825 9.782800
				CHANNELS 3 Xrotation Yrotation Zrotation
				JOINT RightFoot
				{
					OFFSET 0.524587 -53.427383 -12.948300
					CHANNELS 3 Xrotation Yrotation Zrotation
					JOINT RightToeBase
					{
						OFFSET -0.192200 -14.009700 16.364100
						CHANNELS 3 Xrotation Yrotation Zrotation
						JOINT RightToe_End
						{
							OFFSET 1.784700 -0.561700 9.474800
							CHANNELS 3 Xrotation Yrotation Zrotation
							End Site
							{
								OFFSET 0 0 0
							}
						}
					}
				}
			}
		}
	}
	JOINT Spine_virtual
	{
		OFFSET 0.000000 0.000000 0.000000
		CHANNELS 3 Xrotation Yrotation Zrotation
		JOINT Spine
		{
			OFFSET 0.072000 7.257294 -0.789700
			CHANNELS 3 Xrotation Yrotation Zrotation
			JOINT Spine1
			{
				OFFSET 0.000000 12.508769 -0.658067
				CHANNELS 3 Xrotation Yrotation Zrotation
				JOINT Spine1_split
				{
					OFFSET 0.000000 12.508769 -0.658067
					CHANNELS 3 Xrotation Yrotation Zrotation
					JOINT Spine2
					{
						OFFSET 0.000000 12.508769 -0.658067
						CHANNELS 3 Xrotation Yrotation Zrotation
						JOINT Neck_virtual
						{
							OFFSET 0.000000 0.000000 0.000000
							CHANNELS 3 Xrotation Yrotation Zrotation
							JOINT Neck
							{
								OFFSET 0.000000 14.033295 7.520400
								CHANNELS 3 Xrotation Yrotation Zrotation
								JOINT Head
								{
									OFFSET 0.000000 8.198502 5.703100
									CHANNELS 3 Xrotation Yrotation Zrotation
									JOINT HeadTop_End
									{
										OFFSET 0.000000 17.760803 13.332701
										CHANNELS 3 Xrotation Yrotation Zrotation
										End Site
										{
											OFFSET 0 0 0
										}
									}
								}
							}
						}
						JOINT LeftShoulder_virtual
						{
							OFFSET 0.000000 0.000000 0.000000
							CHANNELS 3 Xrotation Yrotation Zrotation
							JOINT LeftShoulder
							{
								OFFSET 6.292450 5.785301 -0.669000
								CHANNELS 3 Xrotation Yrotation Zrotation
								JOINT LeftShoulder_split
								{
									OFFSET 6.292450 5.785301 -0.669000
									CHANNELS 3 Xrotation Yrotation Zrotation
									JOINT LeftArm
									{
										OFFSET 13.907140 -6.093903 1.965100
										CHANNELS 3 Xrotation Yrotation Zrotation
										JOINT LeftForeArm
										{
											OFFSET 34.140198 0.000000 0.000000
											CHANNELS 3 Xrotation Yrotation Zrotation
											JOINT LeftHand
											{
												OFFSET 40.960209 0.000000 0.000000
												CHANNELS 3 Xrotation Yrotation Zrotation
												End Site
												{
													OFFSET 0 0 0
												}
											}
										}
									}
								}
							}
						}
						JOINT RightShoulder_virtual
						{
							OFFSET 0.000000 0.000000 0.000000
							CHANNELS 3 Xrotation Yrotation Zrotation
							JOINT RightShoulder
							{
								OFFSET -6.292450 5.785301 -0.669000
								CHANNELS 3 Xrotation Yrotation Zrotation
								JOINT RightShoulder_split
								{
									OFFSET -6.292450 5.785301 -0.669000
									CHANNELS 3 Xrotation Yrotation Zrotation
									JOINT RightArm
									{
										OFFSET -13.907140 -6.093903 1.965100
										CHANNELS 3 Xrotation Yrotation Zrotation
										JOINT RightForeArm
										{
											OFFSET -34.140198 0.000000 0.000000
											CHANNELS 3 Xrotation Yrotation Zrotation
											JOINT RightHand
											{
												OFFSET -40.960209 0.000000 0.000000
												CHANNELS 3 Xrotation Yrotation Zrotation
												End Site
												{
													OFFSET 0 0 0
												}
											}
										}
									}
								}
							}
						}
					}
				}
			}
		}
	}
}
MOTION
Frames: 10
Frame Time: 0.03333333
-1.068398 104.030319 0.688644 0.000000 0.000000 0.000000 -3.145124 -17.019826 -1.716223 -34.300418 18.010469 14.799297 48.316885 -1.079518 9.457363 -13.678495 3.312987 -8.633151 -1.409032 -0.385004 -0.784075 0.000000 0.000000 0.000000 -3.709246 -16.036294 -1.428296 -28.633842 -21.893536 -13.927958 48.088227 -1.955370 -8.998781 -13.666622 -4.360744 15.815687 -3.588711 0.815466 0.417980 0.000000 0.000000 0.000000 -2.361584 -18.465553 -1.313232 3.892667 2.750294 2.178013 2.842663 2.017993 -0.126717 1.672222 -0.241949 0.089877 0.000000 0.000000 0.000000 2.749540 1.791572 -0.075604 0.945986 -0.232948 4.687912 0.197800 9.593345 1.378994 0.000000 0.000000 0.000000 2.567423 1.962939 -0.238063 0.005124 -4.091318 17.379521 -1.726652 -0.045505 -0.430663 -66.825970 -43.065080 -62.449902 -0.908690 -34.336888 0.836426 0.000000 0.000000 0.000000 3.007986 1.879209 -0.102684 -0.283071 -3.258115 -5.292216 0.697325 0.857494 0.463463 -103.862650 58.833426 95.419853 -1.520417 29.675321 0.447724 0.000000 0.000000 0.000000 
-1.069525 103.922607 0.602768 0.000000 0.000000 0.000000 -3.143945 -17.175870 -1.673871 -34.352341 18.001104 14.707812 48.239225 -1.096901 9.511195 -13.593813 3.243742 -8.635162 -1.391825 -0.348714 -0.848460 0.000000 0.000000 0.000000 -3.730826 -15.996020 -1.390998 -28.662687 -21.977039 -13.998898 48.420376 -2.035252 -8.931256 -13.892604 -4.400415 15.784311 -3.106667 0.805241 0.366728 0.000000 0.000000 0.000000 -2.453209 -18.379609 -1.399668 3.915726 2.720310 2.102493 2.853530 2.013989 -0.159029 1.570732 0.049459 -0.046164 0.000000 0.000000 0.000000 2.675940 1.774223 -0.105430 0.808796 -0.354978 4.710735 0.398121 9.632284 1.378145 0.000000 0.000000 0.000000 2.579977 1.945672 -0.246614 -0.054043 -3.925639 17.295560 -1.738188 -0.054237 -0.335988 -66.760065 -43.290241 -62.546269 -0.854480 -34.640513 0.902583 0.000000 0.000000 0.000000 3.067345 1.879442 -0.123006 -0.262848 -3.181298 -5.385731 0.705083 0.858638 0.431701 -103.848416 59.354207 95.575397 -1.386519 29.386032 0.408884 0.000000 0.000000 0.000000 
-1.033789 103.817657 0.534168 0.000000 0.000000 0.000000 -3.132231 -17.336671 -1.615537 -34.481667 17.959076 14.582001 48.264456 -1.144745 9.681538 -13.352039 3.048287 -8.825191 -1.282134 -0.293977 -0.984061 0.000000 0.000000 0.000000 -3.766828 -16.160569 -1.341581 -28.749007 -22.056726 -14.061248 48.647756 -2.188117 -8.842886 -13.859051 -4.493632 15.740255 -2.942540 0.763924 0.302791 0.000000 0.000000 0.000000 -2.580219 -18.265553 -1.481774 3.853099 2.643668 1.973730 2.800457 2.047286 -0.196002 1.334156 0.004884 -0.158371 0.000000 0.000000 0.000000 2.627891 1.801751 -0.151491 0.707451 -0.553123 4.893103 0.839271 9.474023 1.559676 0.000000 0.000000 0.000000 2.581305 1.968895 -0.276009 -0.142737 -3.606106 17.109154 -1.651967 -0.059650 -0.337628 -66.536083 -43.784084 -62.575468 -0.874197 -35.116772 0.859807 0.000000 0.000000 0.000000 3.090771 1.913381 -0.154534 -0.189663 -2.972507 -5.535129 0.526952 0.820615 0.227729 -103.639439 60.009742 95.891170 -1.217110 29.161687 0.330480 0.000000 0.000000 0.000000 
-0.988840 103.783745 0.490398 0.000000 0.000000 0.000000 -3.089351 -17.524531 -1.556071 -34.649775 17.903609 14.505396 48.285442 -1.216482 9.924338 -13.057338 2.774444 -9.174445 -1.177616 -0.228728 -1.132340 0.000000 0.000000 0.000000 -3.728717 -16.519197 -1.284157 -28.808925 -22.074634 -14.029258 48.648695 -2.341382 -8.779452 -13.561510 -4.573930 15.674888 -3.140025 0.698573 0.281624 0.000000 0.000000 0.000000 -2.690014 -18.234723 -1.532573 3.702435 2.526390 1.847210 2.694178 2.093804 -0.235409 1.028150 -0.300984 -0.101782 0.000000 0.000000 0.000000 2.597534 1.856198 -0.202398 0.647007 -0.782195 5.183718 1.373338 9.225257 1.869697 0.000000 0.000000 0.000000 2.556937 2.016202 -0.323989 -0.247376 -3.185576 16.809259 -1.436522 -0.094252 -0.416038 -66.221799 -44.546453 -62.646406 -0.929970 -35.549844 0.709085 0.000000 0.000000 0.000000 3.071839 1.961404 -0.191454 -0.074867 -2.677058 -5.740389 0.341749 0.726470 0.031546 -103.271490 60.634622 96.295688 -1.041303 29.103778 0.229258 0.000000 0.000000 0.000000 
-0.959342 103.815788 0.454575 0.000000 0.000000 0.000000 -3.050737 -17.780815 -1.527972 -34.830082 17.848965 14.500510 48.291131 -1.281067 10.186660 -12.729686 2.513526 -9.584483 -1.137438 -0.162764 -1.240148 0.000000 0.000000 0.000000 -3.585577 -16.979160 -1.247842 -28.823897 -21.975323 -13.865620 48.484125 -2.487115 -8.755602 -13.159576 -4.612597 15.445600 -3.258735 0.621491 0.351469 0.000000 0.000000 0.000000 -2.664703 -18.336643 -1.531948 3.493830 2.399642 1.756680 2.560323 2.129501 -0.271787 0.894880 -0.647949 0.023026 0.000000 0.000000 0.000000 2.569426 1.902175 -0.245337 0.608479 -0.994441 5.461988 1.808083 8.987174 2.222790 0.000000 0.000000 0.000000 2.497354 2.057999 -0.376341 -0.364324 -2.721616 16.456979 -1.321030 -0.119545 -0.558561 -65.927178 -45.514229 -62.804634 -0.954571 -35.873765 0.531789 0.000000 0.000000 0.000000 3.003099 1.997620 -0.225000 0.057039 -2.337263 -5.985443 0.163849 0.579420 -0.154547 -102.897749 61.093897 96.678439 -0.901733 29.215933 0.180624 0.000000 0.000000 0.000000 
-0.933106 103.903870 0.417332 0.000000 0.000000 0.000000 -3.034243 -18.117225 -1.537194 -34.933016 17.840265 14.538804 48.310498 -1.280766 10.395714 -12.471494 2.360930 -9.884859 -1.135555 -0.113785 -1.309278 0.000000 0.000000 0.000000 -3.418242 -17.426983 -1.248241 -28.918563 -21.791109 -13.641968 48.310259 -2.635742 -8.765978 -12.751380 -4.610221 15.083455 -3.139115 0.545670 0.501023 0.000000 0.000000 0.000000 -2.527432 -18.615950 -1.491199 3.321493 2.284166 1.706460 2.419280 2.137668 -0.308520 1.041108 -0.956458 0.183765 0.000000 0.000000 0.000000 2.534586 1.922238 -0.265449 0.567790 -1.169338 5.652172 2.031608 8.842513 2.521557 0.000000 0.000000 0.000000 2.405844 2.066976 -0.421537 -0.484401 -2.246699 16.091314 -1.194285 0.021305 -0.713058 -65.788211 -46.650540 -63.110367 -0.861695 -36.108522 0.403969 0.000000 0.000000 0.000000 2.892219 2.005069 -0.247683 0.172680 -2.031697 -6.296068 0.083760 0.523055 -0.311623 -102.483512 61.255944 96.774874 -0.809390 29.190111 0.207678 0.000000 0.000000 0.000000 
-0.896846 104.009850 0.300426 0.000000 0.000000 0.000000 -3.032985 -18.458914 -1.576582 -34.977645 17.958553 14.590514 48.394950 -1.120387 10.497093 -12.392926 2.359994 -9.917458 -1.179325 -0.081446 -1.322575 0.000000 0.000000 0.000000 -3.293066 -17.813733 -1.281068 -29.174234 -21.602215 -13.463880 48.297104 -2.737648 -8.820394 -12.397820 -4.540296 14.846591 -2.991846 0.479655 0.629799 0.000000 0.000000 0.000000 -2.314666 -19.010006 -1.436093 3.236809 2.236285 1.693062 2.287831 2.127471 -0.332937 1.140801 -1.148159 0.286424 0.000000 0.000000 0.000000 2.479917 1.911864 -0.261033 0.512441 -1.282708 5.700015 2.075747 8.833035 2.691549 0.000000 0.000000 0.000000 2.307390 2.052330 -0.447273 -0.591122 -1.790539 15.756987 -1.017651 0.327958 -0.897317 -65.758370 -47.909211 -63.550471 -0.546537 -36.181428 0.409474 0.000000 0.000000 0.000000 2.746735 1.989693 -0.257138 0.227915 -1.803431 -6.655534 0.200102 0.694787 -0.394229 -101.939658 61.087689 96.438501 -0.748417 28.819358 0.296930 0.000000 0.000000 0.000000 
-0.864354 104.082909 0.189434 0.000000 0.000000 0.000000 -3.062696 -18.702123 -1.641223 -35.027584 18.189796 14.623561 48.586595 -0.826938 10.497108 -12.432610 2.479999 -9.709622 -1.291258 -0.062061 -1.290044 0.000000 0.000000 0.000000 -3.252214 -18.048872 -1.327120 -29.573421 -21.502228 -13.401775 48.566842 -2.784251 -8.908421 -12.109505 -4.407831 14.942475 -2.998381 0.432662 0.643939 0.000000 0.000000 0.000000 -2.043343 -19.379410 -1.376036 3.253222 2.286780 1.686338 2.185155 2.118131 -0.336472 1.222228 -1.211421 0.246439 0.000000 0.000000 0.000000 2.418209 1.888116 -0.240336 0.466965 -1.346794 5.588120 2.061343 8.909289 2.724707 0.000000 0.000000 0.000000 2.244813 2.027401 -0.446401 -0.665788 -1.417519 15.521946 -0.834065 0.743261 -1.014818 -65.654831 -49.218603 -63.986312 -0.051668 -35.980634 0.546849 0.000000 0.000000 0.000000 2.609145 1.970716 -0.253012 0.220918 -1.681241 -7.011048 0.365927 0.954819 -0.341542 -101.404178 60.701687 95.886362 -0.711083 28.178516 0.415764 0.000000 0.000000 0.000000 
-0.837468 104.128593 0.115459 0.000000 0.000000 0.000000 -3.126977 -18.791496 -1.714243 -35.093761 18.456428 14.634756 48.826495 -0.538131 10.434633 -12.521259 2.643426 -9.446324 -1.446339 -0.056723 -1.241025 0.000000 0.000000 0.000000 -3.321721 -18.056577 -1.374469 -29.982625 -21.626300 -13.458716 49.006911 -2.802921 -9.004319 -11.980097 -4.286803 15.390720 -3.178146 0.411623 0.522880 0.000000 0.000000 0.000000 -1.837050 -19.618853 -1.331556 3.342602 2.427889 1.675414 2.124174 2.134823 -0.319289 1.256816 -1.257102 0.206122 0.000000 0.000000 0.000000 2.350336 1.884427 -0.216338 0.549181 -1.355628 5.368122 2.192435 8.988315 2.687031 0.000000 0.000000 0.000000 2.263217 2.015163 -0.428145 -0.680046 -1.212838 15.401429 -0.569237 1.245037 -1.015117 -65.627961 -50.554287 -64.581269 0.422452 -35.340816 0.676452 0.000000 0.000000 0.000000 2.541836 1.977154 -0.253695 0.148258 -1.688712 -7.360262 0.625856 1.229546 -0.209624 -100.917418 60.325180 95.306629 -0.687268 27.526082 0.478715 0.000000 0.000000 0.000000 
-0.797935 104.117218 0.007019 0.000000 0.000000 0.000000 -3.235347 -18.719880 -1.779845 -35.199301 18.626208 14.636055 49.012119 -0.388116 10.365442 -12.589657 2.756988 -9.302364 -1.559658 -0.065948 -1.186148 0.000000 0.000000 0.000000 -3.516505 -17.879332 -1.426100 -30.159281 -21.971656 -13.535434 49.399842 -2.845124 -9.101018 -12.200116 -4.271585 15.882621 -3.364661 0.423250 0.321110 0.000000 0.000000 0.000000 -1.770000 -19.656608 -1.320161 3.409320 2.641730 1.666721 2.111785 2.187431 -0.289993 1.107504 -1.337332 0.148670 0.000000 0.000000 0.000000 2.281188 1.920823 -0.202282 0.861758 -1.284958 5.089331 2.665802 9.049013 2.654257 0.000000 0.000000 0.000000 2.366941 2.035204 -0.406789 -0.623385 -1.243172 15.427331 -0.390442 1.706561 -1.047558 -65.831139 -51.793915 -65.371392 0.696673 -34.209631 0.709436 0.000000 0.000000 0.000000 2.583512 2.016039 -0.273002 0.019176 -1.764264 -7.694099 0.842349 1.431464 -0.051757 -100.443362 60.261851 94.837238 -0.663856 27.253689 0.456687 0.000000 0.000000 0.000000 
